<svg width="648" height="751" viewBox="0 0 648 751" fill="none" xmlns="http://www.w3.org/2000/svg">
<path fill-rule="evenodd" clip-rule="evenodd" d="M588.562 4.07164e-06H58.9372C16.0092 4.07164e-06 0.166504 15.8427 0.166504 58.7907V577.025C0.166504 581.885 0.362496 586.4 0.791829 590.583C1.76916 599.957 1.95317 609.041 10.6718 619.384C11.5238 620.397 20.4252 627.021 20.4252 627.021C25.2132 629.369 28.4825 631.099 33.8825 633.272L294.677 742.536C308.216 748.743 313.877 751.161 323.71 750.967V750.968C323.724 750.968 323.736 750.968 323.749 750.968C323.762 750.968 323.774 750.968 323.788 750.968V750.967C333.621 751.161 339.282 748.743 352.822 742.536L613.616 633.272C619.017 631.099 622.285 629.369 627.074 627.021C627.074 627.021 635.976 620.397 636.826 619.384C645.545 609.041 645.729 599.957 646.706 590.583C647.136 586.4 647.333 581.885 647.333 577.025V58.7907C647.333 15.8427 631.489 4.07164e-06 588.562 4.07164e-06Z" fill="#2F2D2E"/>
<path d="M553.088 521.017L552.968 522.213L552.85 523.526L552.61 524.722L552.252 525.917L552.02 526.993L551.66 528.189L551.183 529.265L550.704 530.222L550.234 531.297L549.636 532.253L549.039 533.21L548.328 534.166L547.73 535.122L547.02 535.958L546.183 536.796L545.472 537.513L544.518 538.35L543.687 539.068L542.731 539.785L541.782 540.374L540.832 541.092L539.756 541.689L538.687 542.168L537.619 542.765L536.423 543.244L535.235 543.722L534.047 544.08L532.859 544.44L531.783 544.797L530.595 545.037L529.526 545.276L528.458 545.514L527.262 545.754L526.072 545.873L525.004 545.993L523.808 546.113L522.502 546.233L521.312 546.352H520.124H518.816H517.502H516.314L515.124 546.233H513.818L512.628 546.113L511.434 545.993L510.126 545.873L508.938 545.634L507.75 545.514L506.554 545.276L505.364 545.037L504.176 544.797L502.988 544.558L501.794 544.201L500.724 543.961L499.536 543.602L498.347 543.244L497.272 542.765L496.084 542.406L495.015 542.049L493.826 541.57L492.751 541.092L491.682 540.613L490.612 540.024L489.538 539.545L488.468 538.946L487.519 538.35L486.443 537.752L485.494 537.154L484.538 536.557L483.588 535.84L482.639 535.122L481.683 534.405L480.732 533.688L479.896 532.97L478.947 532.134L479.664 531.178L480.494 530.341L481.211 529.384L482.042 528.428L482.759 527.592L483.468 526.636L484.306 525.678L485.015 524.842L485.852 523.886L486.563 523.049L487.399 522.093L488.11 521.136L488.827 520.3L489.656 519.344L490.374 518.386L491.203 517.55L491.92 516.594L492.87 517.312L493.939 518.029L494.895 518.746L495.964 519.464L496.92 520.061L497.99 520.777L498.938 521.376L500.015 521.853L500.963 522.452L502.032 522.93L503.108 523.408L504.176 523.886L505.247 524.245L506.322 524.722L507.51 525.081L508.699 525.44L509.767 525.798L510.963 526.038L512.151 526.277L513.339 526.516L514.647 526.636L515.842 526.874H517.031L518.338 526.993H519.527H520.954L522.262 526.874L523.458 526.636L524.526 526.396L525.595 526.157L526.551 525.798L527.382 525.321L528.338 524.604L529.047 523.766L529.526 522.809L529.886 521.734L530.003 520.538V520.3L529.886 518.865L529.407 517.669L528.808 516.833L527.979 516.116L527.022 515.398L526.072 514.921L525.004 514.442L523.808 513.964L522.382 513.368L521.551 513.128L520.603 512.889L519.527 512.529L518.458 512.29L517.27 511.932L516.074 511.693L514.767 511.334L513.578 511.096L512.27 510.737L511.082 510.498L509.886 510.14L508.699 509.9L507.51 509.541L506.434 509.184L505.247 508.944L504.176 508.585L503.108 508.226L502.032 507.868L500.724 507.389L499.536 506.91L498.347 506.433L497.152 505.954L496.084 505.357L494.895 504.76L493.939 504.162L492.87 503.565L491.92 502.848L490.964 502.25L490.135 501.532L489.299 500.696L488.468 499.858L487.751 499.021L487.042 498.185L486.443 497.349L485.852 496.392L485.255 495.317L484.776 494.488L484.418 493.53L484.067 492.454L483.708 491.498L483.468 490.302L483.23 489.226L483.11 488.032L482.991 486.836L482.871 485.522V484.206V483.968V482.772L482.991 481.577L483.11 480.501L483.23 479.305L483.468 478.23L483.708 477.154L484.067 476.077L484.306 475.002L484.776 473.926L485.255 472.85L485.732 471.776L486.324 470.698L486.92 469.624L487.631 468.666L488.35 467.71L489.179 466.754L490.015 465.918L490.846 464.961L491.802 464.124L492.631 463.526L493.587 462.809L494.538 462.092L495.486 461.494L496.562 460.897L497.631 460.418L498.699 459.821L499.775 459.344L500.963 458.984L502.151 458.506L503.227 458.148L504.176 457.908L505.247 457.669L506.322 457.43L507.51 457.192L508.579 456.952L509.767 456.833L510.963 456.713L512.151 456.593L513.339 456.474H514.527H515.842H517.151H518.458L519.766 456.593L521.074 456.713H522.262L523.576 456.833L524.764 457.072L526.072 457.192L527.262 457.43L528.338 457.669L529.526 457.908L530.714 458.148L531.783 458.386L532.978 458.745L534.047 459.104L535.116 459.344L536.311 459.821L537.38 460.18L538.448 460.657L539.518 461.136L540.712 461.614L541.782 462.212L542.731 462.69L543.807 463.288L544.876 463.885L545.826 464.484L546.9 465.201L547.851 465.797L548.807 466.516L549.756 467.233L550.704 467.949L549.995 468.906L549.398 469.862L548.687 470.818L547.97 471.776L547.26 472.85L546.662 473.806L545.944 474.764L545.234 475.72L544.638 476.676L543.926 477.633L543.21 478.589L542.611 479.545L541.902 480.621L541.183 481.577L540.474 482.533L539.876 483.489L539.166 484.445L538.21 483.729L537.142 483.13L536.191 482.533L535.235 481.816L534.167 481.338L533.21 480.74L532.142 480.261L531.192 479.784L530.116 479.305L529.167 478.828L528.099 478.469L527.143 477.99L525.834 477.633L524.646 477.273L523.458 476.916L522.262 476.676L521.074 476.437L519.886 476.197L518.698 476.077L517.502 475.958L516.434 475.838H515.244H513.818L512.51 476.077L511.314 476.317L510.246 476.556L509.296 477.034L508.459 477.512L507.39 478.469L506.672 479.545L506.203 480.621L506.082 481.816V482.056L506.203 483.609L506.792 484.924L507.271 485.641L508.1 486.478L509.176 487.076L510.126 487.673L511.314 488.152L512.628 488.63L514.056 489.108L515.006 489.346L515.955 489.705L517.031 489.944L518.099 490.302L519.287 490.542L520.603 490.901L521.911 491.258L523.219 491.618L524.526 491.857L525.714 492.216L527.022 492.574L528.218 492.813L529.407 493.172L530.595 493.53L531.663 493.889L532.859 494.248L533.928 494.606L534.996 494.965L536.311 495.436L537.499 496.034L538.687 496.512L539.876 497.109L540.952 497.708L542.022 498.305L542.97 498.902L543.926 499.62L544.876 500.217L545.826 501.054L546.782 501.89L547.611 502.848L548.447 503.684L549.158 504.641L549.875 505.716L550.466 506.672L551.064 507.749L551.542 508.705L551.9 509.78L552.252 510.856L552.491 511.932L552.73 513.128L552.968 514.324L553.088 515.518L553.208 516.833V518.148V518.386V519.702L553.088 521.017ZM469.63 544.918H468.435H467.247H466.059H464.871H463.675H462.486H461.299H460.11H458.795H457.607H456.419H455.231H454.034H452.847H451.658H450.47H449.274H448.086H446.898H445.71H444.52H443.326H442.138H440.95H439.76H438.564H437.376H436.188H434.88H433.686H432.496H431.308H430.12H428.926H427.736H426.548H425.359H424.164H422.976H421.788H420.599H419.403H418.216H417.027H415.839H414.644H413.455H412.147H410.959H409.771H408.575H407.387H406.198H405.011H403.816H402.627H401.439V543.722V542.526V541.332V540.142V538.946V537.752V536.557V535.362V534.166V532.97V531.776V530.58V529.384V528.189V526.993V525.798V524.604V523.408V522.332V521.136V519.941V518.746V517.55V516.354V515.16V513.964V512.768V511.573V510.378V509.184V507.988V506.792V505.597V504.401V503.205V502.01V500.814V499.62V498.425V497.229V496.034V494.845V493.65V492.454V491.258V490.064V488.869V487.673V486.478V485.282V484.086V482.892V481.696V480.501V479.425V478.23V477.034V475.838V474.644V473.448V472.253V471.057V469.862V468.666V467.472V466.276V465.08V463.885V462.69V461.494V460.3V459.104V457.908H402.627H403.816H405.011H406.198H407.387H408.575H409.771H410.959H412.147H413.336H414.531H415.72H416.907H418.096H419.171H420.36H421.548H422.738H423.932H425.12H426.308H427.498H428.692H429.88H431.068H432.258H433.454H434.642H435.83H437.018H438.214H439.403H440.59H441.778H442.967H444.163H445.351H446.539H447.727H448.923H450.111H451.299H452.487H453.564H454.752H455.94H457.13H458.324H459.512H460.7H461.888H463.084H464.272H465.46H466.65H467.844H469.034H470.222V459.104V460.18V461.374V462.57V463.765V464.841V466.037V467.233V468.308V469.504V470.698V471.776V472.97V474.165V475.361V476.437V477.633H469.034H467.844H466.65H465.46H464.272H463.084H462.008H460.82H459.632H458.443H457.248H456.06H454.871H453.683H452.487H451.299H450.111H448.923H447.727H446.659H445.47H444.282H443.086H441.899H440.71H439.522H438.326H437.138H435.95H434.762H433.566H432.376H431.308H430.12H428.926H427.736H426.548H425.359H424.164V478.828V480.022V481.217V482.413V483.609V484.685V485.88V487.076V488.27V489.466V490.661V491.857H425.359H426.548H427.736H428.926H430.12H431.308H432.496H433.686H434.762H435.95H437.138H438.326H439.522H440.71H441.899H443.086H444.282H445.47H446.659H447.847H449.042H450.23H451.419H452.608H453.803H454.991H456.06H457.248H458.443H459.632H460.82H462.008H463.203H464.392H465.58V493.052V494.128V495.317V496.512V497.588V498.782V499.978V501.054V502.25V503.445V504.641V505.716V506.91V508.106V509.184V510.378H464.392H463.203H462.008H460.82H459.632H458.443H457.248H456.06H454.991H453.803H452.608H451.419H450.23H449.042H447.847H446.659H445.47H444.282H443.086H441.899H440.71H439.522H438.326H437.138H435.95H434.762H433.686H432.496H431.308H430.12H428.926H427.736H426.548H425.359H424.164V511.573V512.889V514.084V515.28V516.594V517.79V518.985V520.3V521.494V522.69V524.005V525.2H425.359H426.548H427.736H428.926H430.12H431.308H432.496H433.686H434.88H436.188H437.376H438.564H439.76H440.95H442.138H443.326H444.52H445.71H446.898H448.086H449.274H450.47H451.658H452.847H454.034H455.231H456.419H457.607H458.795H460.11H461.299H462.486H463.675H464.871H466.059H467.247H468.435H469.63H470.819V526.396V527.472V528.668V529.862V531.058V532.134V533.329V534.524V535.601V536.796V537.99V539.068V540.256V541.45V542.645V543.722V544.918H469.63ZM382.678 544.918H381.49H380.3H378.987H377.799H376.61H375.422H374.226H373.038H371.73H370.542H369.352H368.158H366.97H365.782H364.474H363.278H362.09H360.9V543.722V542.526V541.332V540.136V538.933V537.738V536.542V535.346V534.152V532.957V531.761V530.56V529.364V528.168V526.973V525.777V524.574V523.378V522.184V520.989V519.793V518.598V517.396V516.201V515.005V513.809V512.614V511.418V510.216V509.02V507.825V506.63V505.436V504.24V503.037V501.842V500.646V499.452V498.256V497.053V495.858V494.662V493.466L360.304 494.422L359.594 495.506L358.995 496.462L358.286 497.42L357.688 498.494L356.97 499.452L356.38 500.408L355.782 501.49L355.072 502.446L354.474 503.402L353.758 504.36L353.167 505.442L352.45 506.398L351.859 507.354L351.26 508.43L350.543 509.393L349.952 510.35L349.235 511.425L348.646 512.382L347.928 513.338L347.338 514.421L346.739 515.378L346.023 516.334L345.432 517.41L344.715 518.373L344.124 519.329L343.407 520.286L342.808 521.361L342.218 522.324L341.502 523.281L340.911 524.357L340.194 525.313L339.596 526.269L338.886 527.353L338.288 528.309H337.816L337.1 527.233L336.502 526.269L335.791 525.193L335.194 524.237L334.483 523.162L333.886 522.198L333.176 521.122L332.578 520.165L331.86 519.09L331.27 518.134L330.552 517.05L329.963 516.094L329.246 515.018L328.647 514.062L327.938 512.98L327.339 512.024L326.63 510.948L325.912 509.992L325.315 508.909L324.604 507.953L324.007 506.877L323.296 505.921L322.699 504.837L321.988 503.881L321.391 502.805L320.674 501.849L320.083 500.773L319.366 499.809L318.775 498.734L318.058 497.777L317.46 496.701L316.751 495.746L316.151 494.662L315.442 493.706V494.901V496.097V497.293V498.494V499.69V500.885V502.081V503.277V504.478V505.674V506.75V507.945V509.141V510.336V511.538V512.734V513.929V515.124V516.32V517.516V518.717V519.913V521.109V522.304V523.5V524.694V525.897V527.092V528.288V529.482V530.678V531.88V532.957V534.152V535.346V536.542V537.738V538.933V540.136V541.332V542.526V543.722V544.918H314.254H313.059H311.87H310.682H309.494H308.299H307.11H305.922H304.732H303.538H302.35H301.16H299.972H298.778H297.59H296.4H295.211H294.016H292.828V543.722V542.526V541.332V540.142V538.946V537.752V536.557V535.362V534.166V532.97V531.776V530.58V529.384V528.189V526.993V525.798V524.604V523.408V522.332V521.136V519.941V518.746V517.55V516.354V515.16V513.964V512.768V511.573V510.378V509.184V507.988V506.792V505.597V504.401V503.205V502.01V500.814V499.62V498.425V497.229V496.034V494.845V493.65V492.454V491.258V490.064V488.869V487.673V486.478V485.282V484.086V482.892V481.696V480.501V479.425V478.23V477.034V475.838V474.644V473.448V472.253V471.057V469.862V468.666V467.472V466.276V465.08V463.885V462.69V461.494V460.3V459.104V457.908H294.016H295.211H296.282H297.468H298.658H299.852H300.922H302.11H303.306H304.494H305.563H306.751H307.947H309.135H310.203H311.391H312.587H313.776H314.844H316.032H317.228L317.819 458.865L318.416 459.94L319.126 460.889L319.724 461.965L320.322 462.921L320.912 463.998L321.51 464.946L322.222 466.024L322.818 466.98L323.416 467.936L324.007 469.004L324.604 469.961L325.315 471.036L325.912 471.993L326.51 473.061L327.1 474.017L327.818 474.973L328.416 476.044L329.006 476.998L329.603 478.074L330.195 479.032L330.912 480.1L331.51 481.057L332.099 482.132L332.698 483.081L333.288 484.037L334.006 485.113L334.603 486.07L335.194 487.146L335.791 488.096L336.382 489.172L337.1 490.128L337.698 491.196L338.288 492.153L338.886 491.196L339.483 490.128L340.194 489.172L340.79 488.096L341.382 487.146L341.979 486.07L342.69 485.113L343.287 484.037L343.886 483.081L344.475 482.132L345.192 481.057L345.783 480.1L346.382 479.032L346.978 478.074L347.688 476.998L348.286 476.044L348.884 474.973L349.474 474.017L350.074 473.061L350.783 471.993L351.38 471.036L351.978 469.961L352.57 469.004L353.286 467.936L353.878 466.98L354.474 466.024L355.072 464.946L355.782 463.998L356.38 462.921L356.97 461.965L357.568 460.889L358.286 459.94L358.876 458.865L359.474 457.908H360.662H361.851H362.926H364.115H365.303H366.491H367.567H368.756H369.943H371.132H372.208H373.396H374.584H375.774H376.848H378.038H379.226H380.414H381.49H382.678H383.866V459.104V460.3V461.494V462.69V463.885V465.08V466.276V467.472V468.666V469.862V471.057V472.253V473.448V474.644V475.838V477.034V478.23V479.425V480.501V481.696V482.892V484.086V485.282V486.478V487.673V488.869V490.064V491.258V492.454V493.65V494.845V496.034V497.229V498.425V499.62V500.814V502.01V503.205V504.401V505.597V506.792V507.988V509.184V510.378V511.573V512.768V513.964V515.16V516.354V517.55V518.746V519.941V521.136V522.332V523.408V524.604V525.798V526.993V528.189V529.384V530.58V531.776V532.97V534.166V535.362V536.557V537.752V538.946V540.142V541.332V542.526V543.722V544.918H382.678ZM244.599 509.064L244.24 507.981L243.77 506.785L243.291 505.709L242.932 504.626L242.462 503.55L241.984 502.354L241.624 501.272L241.146 500.196L240.676 499.121L240.316 498.038L239.838 496.842L239.487 495.766L239.008 494.684L238.53 493.608L238.172 492.532L237.7 491.33L237.223 490.253L236.864 489.178L236.386 488.096L235.915 486.9L235.556 485.817L235.078 484.741L234.607 485.817L234.25 486.9L233.771 488.096L233.292 489.178L232.94 490.253L232.463 491.33L231.984 492.532L231.514 493.608L231.154 494.684L230.676 495.766L230.198 496.842L229.846 498.038L229.368 499.121L228.89 500.196L228.532 501.272L228.06 502.354L227.582 503.55L227.104 504.626L226.754 505.709L226.275 506.785L225.796 507.981L225.438 509.064L224.967 510.14H226.155H227.343H228.532H229.727H230.915H232.103H233.292H234.488H235.556H236.744H237.94H239.128H240.316H241.506H242.694H243.888H245.076L244.599 509.064ZM281.972 544.918H280.778H279.707H278.52H277.324H276.136H274.947H273.879H272.683H271.495H270.307H269.118H267.923H266.854H265.666H264.476H263.282H262.094H261.024H259.836H258.642L258.17 543.841L257.811 542.765L257.334 541.689L256.855 540.494L256.503 539.425L256.026 538.35L255.547 537.274L255.195 536.198L254.718 535.122L254.239 534.046L253.882 532.97L253.41 531.776L252.931 530.7L252.572 529.624L252.094 528.548H250.906H249.718H248.53H247.342H246.266H245.076H243.888H242.694H241.506H240.316H239.128H237.94H236.744H235.556H234.488H233.292H232.103H230.915H229.727H228.532H227.343H226.155H224.967H223.779H222.702H221.515H220.326H219.13H217.942L217.471 529.624L217.112 530.7L216.634 531.776L216.156 532.97L215.804 534.046L215.327 535.122L214.848 536.198L214.49 537.274L214.019 538.35L213.54 539.425L213.182 540.494L212.71 541.689L212.232 542.765L211.874 543.841L211.395 544.918H210.207H209.019H207.831H206.635H205.447H204.139H202.951H201.762H200.567H199.379H198.191H197.002H195.806H194.619H193.431H192.123H190.927H189.739H188.55H187.362L187.832 543.841L188.311 542.765L188.788 541.689L189.26 540.494L189.619 539.425L190.098 538.35L190.575 537.274L191.046 536.198L191.524 535.122L192.003 533.926L192.474 532.85L192.952 531.776L193.31 530.7L193.788 529.624L194.259 528.548L194.738 527.353L195.215 526.277L195.687 525.2L196.166 524.125L196.643 523.049L197.002 521.973L197.472 520.777L197.951 519.702L198.43 518.626L198.9 517.55L199.379 516.474L199.858 515.398L200.328 514.202L200.687 513.128L201.166 512.052L201.643 510.976L202.115 509.9L202.592 508.824L203.07 507.629L203.542 506.553L204.019 505.477L204.378 504.401L204.856 503.326L205.327 502.25L205.806 501.054L206.284 499.978L206.755 498.902L207.232 497.826L207.711 496.752L208.07 495.674L208.542 494.606L209.019 493.41L209.496 492.336L209.968 491.258L210.446 490.182L210.924 489.108L211.395 488.032L211.754 486.836L212.232 485.761L212.71 484.685L213.182 483.609L213.66 482.533L214.138 481.457L214.61 480.261L215.087 479.186L215.446 478.11L215.923 477.034L216.395 475.958L216.872 474.882L217.351 473.688L217.822 472.612L218.3 471.536L218.779 470.46L219.13 469.385L219.608 468.308L220.087 467.113L220.566 466.037L221.036 464.961L221.515 463.885L221.992 462.809L222.463 461.734L222.823 460.538L223.3 459.462L223.779 458.386L224.25 457.31H225.438H226.514H227.702H228.89H230.086H231.154H232.342H233.531H234.727H235.796H236.983H238.172H239.367H240.436H241.624H242.812H244.008H245.076H246.266L246.743 458.386L247.222 459.462L247.694 460.538L248.171 461.734L248.53 462.809L249 463.885L249.479 464.961L249.956 466.037L250.435 467.113L250.906 468.308L251.384 469.385L251.863 470.46L252.214 471.536L252.692 472.612L253.171 473.688L253.65 474.882L254.12 475.958L254.598 477.034L255.076 478.11L255.547 479.186L255.906 480.261L256.383 481.457L256.855 482.533L257.334 483.609L257.811 484.685L258.29 485.761L258.76 486.836L259.238 488.032L259.598 489.108L260.068 490.182L260.546 491.258L261.024 492.336L261.503 493.41L261.974 494.606L262.452 495.674L262.93 496.752L263.282 497.826L263.759 498.902L264.238 499.978L264.71 501.054L265.187 502.25L265.666 503.326L266.144 504.401L266.615 505.477L266.974 506.553L267.451 507.629L267.923 508.824L268.4 509.9L268.879 510.976L269.356 512.052L269.828 513.128L270.307 514.202L270.664 515.398L271.136 516.474L271.614 517.55L272.092 518.626L272.563 519.702L273.042 520.777L273.52 521.973L273.999 523.049L274.35 524.125L274.828 525.2L275.307 526.277L275.778 527.353L276.255 528.548L276.734 529.624L277.211 530.7L277.682 531.776L278.042 532.85L278.52 533.926L278.991 535.122L279.468 536.198L279.946 537.274L280.418 538.35L280.895 539.425L281.374 540.494L281.734 541.689L282.203 542.765L282.682 543.841L283.159 544.918H281.972ZM177.715 533.806L176.759 534.524L175.928 535.122L174.972 535.84L174.023 536.437L173.074 537.154L172.118 537.752L171.168 538.35L170.092 538.946L169.023 539.545L167.954 540.142L166.879 540.613L165.81 541.212L164.622 541.689L163.554 542.168L162.358 542.645L161.29 543.124L160.219 543.482L159.144 543.841L158.075 544.201L156.887 544.558L155.819 544.918L154.623 545.157L153.554 545.396L152.366 545.634L151.171 545.873L149.982 545.993L148.674 546.113L147.486 546.233L146.178 546.352L144.982 546.472L143.675 546.59H142.367H141.058H139.751H138.555L137.367 546.472L136.059 546.352L134.871 546.233L133.683 546.113L132.487 545.993L131.299 545.754L130.11 545.514L129.042 545.276L127.847 545.037L126.778 544.678L125.59 544.44L124.514 544.08L123.444 543.602L122.375 543.244L121.188 542.765L120.112 542.288L119.043 541.81L117.975 541.332L116.898 540.734L115.95 540.142L114.88 539.545L113.924 538.946L112.975 538.35L112.019 537.632L111.07 536.916L110.119 536.198L109.283 535.481L108.454 534.764L107.616 533.926L106.787 533.21L105.95 532.373L105.12 531.536L104.403 530.7L103.692 529.744L102.975 528.906L102.378 527.95L101.667 526.993L101.071 526.038L100.479 525.081L99.8818 524.005L99.2845 523.049L98.8138 521.973L98.3351 520.897L97.8578 519.821L97.3858 518.746L97.0271 517.79L96.5485 516.713L96.3098 515.637L95.9578 514.562L95.7191 513.368L95.3605 512.29L95.1218 511.096L95.0018 510.02L94.7618 508.824L94.6444 507.749L94.5231 506.553L94.4111 505.357L94.2925 504.162V502.848V501.652V501.413V500.217L94.4111 498.902V497.708L94.5231 496.512L94.6444 495.197L94.8831 494.009L95.0018 492.813L95.2405 491.737L95.5991 490.542L95.8391 489.346L96.1898 488.27L96.5485 487.076L96.9071 486L97.3858 484.804L97.8578 483.729L98.3351 482.653L98.8138 481.577L99.2845 480.501L99.8818 479.425L100.479 478.469L101.071 477.512L101.667 476.556L102.266 475.6L102.975 474.644L103.692 473.688L104.403 472.732L105.12 471.893L105.95 471.057L106.667 470.22L107.498 469.385L108.334 468.546L109.163 467.83L110.119 466.993L110.95 466.276L111.899 465.558L112.855 464.961L113.804 464.244L114.762 463.646L115.71 463.049L116.779 462.45L117.855 461.853L118.923 461.256L119.992 460.777L121.067 460.3L122.256 459.701L123.206 459.344L124.394 458.984L125.471 458.506L126.539 458.266L127.607 457.908L128.802 457.669L129.871 457.31L131.059 457.072L132.248 456.952L133.443 456.713L134.632 456.593L135.819 456.474L137.008 456.354L138.204 456.234H139.512H140.7H142.007H143.315L144.631 456.354L145.939 456.474H147.127L148.315 456.593L149.623 456.833L150.699 456.952L151.887 457.192L153.076 457.43L154.151 457.669L155.219 457.908L156.29 458.148L157.366 458.506L158.434 458.745L159.383 459.104L160.459 459.462L161.528 459.94L162.596 460.418L163.672 460.897L164.742 461.494L165.81 461.973L166.767 462.57L167.835 463.168L168.784 463.765L169.86 464.364L170.81 465.08L171.759 465.678L172.715 466.396L173.664 467.113L174.62 467.949L175.57 468.666L174.852 469.624L174.023 470.46L173.306 471.416L172.476 472.372L171.759 473.329L171.048 474.165L170.211 475.121L169.502 476.077L168.784 476.916L167.954 477.872L167.238 478.828L166.407 479.784L165.69 480.621L164.98 481.577L164.144 482.533L163.432 483.489L162.596 484.326L161.886 485.282L160.93 484.565L159.98 483.729L159.024 483.13L158.075 482.413L157.126 481.816L156.17 481.217L155.219 480.621L154.151 480.022L153.195 479.545L152.246 479.066L151.29 478.708L150.22 478.349L149.152 477.99L148.076 477.752L146.888 477.512L145.7 477.273L144.511 477.154L143.203 477.034L141.888 476.916H140.58H139.392L138.204 477.034L137.128 477.154L135.94 477.393L134.871 477.633L133.795 477.99L132.727 478.349L131.658 478.828L130.588 479.305L129.632 479.902L128.684 480.501L127.727 481.1L126.898 481.816L126.06 482.533L125.231 483.25L124.514 484.086L123.684 484.924L122.967 485.88L122.375 486.717L121.778 487.673L121.188 488.749L120.59 489.705L120.112 490.781L119.754 491.857L119.282 492.933L118.923 494.128L118.684 495.317L118.446 496.392L118.206 497.708L118.087 498.902L117.975 500.097V501.413V501.652V502.848L118.087 504.042L118.206 505.118L118.326 506.314L118.564 507.389L118.804 508.466L119.043 509.541L119.402 510.617L119.754 511.573L120.232 512.768L120.71 513.845L121.3 514.921L121.898 515.877L122.495 516.833L123.206 517.79L123.923 518.626L124.752 519.464L125.471 520.3L126.299 521.017L127.256 521.734L128.206 522.452L129.154 523.049L130.11 523.646L131.18 524.125L132.248 524.604L133.323 525.081L134.512 525.44L135.7 525.798L136.896 526.038L138.084 526.277L139.272 526.396L140.58 526.516H141.888H143.315L144.631 526.396L145.939 526.277L147.127 526.157L148.315 525.917L149.511 525.678L150.699 525.321L151.767 525.081L152.838 524.604L153.794 524.125L154.862 523.646L155.698 523.169L156.648 522.57V521.376V520.181V518.985V517.79V516.474V515.28V514.084V512.889V511.693H155.459H154.384H153.195H152.007H150.819H149.743H148.554H147.366H146.178H145.103H143.914H142.726H141.536H140.462H139.272V510.498V509.422V508.226V507.032V505.836V504.76V503.565V502.369V501.174V500.097V498.902V497.708V496.512V495.436V494.248H140.462H141.656H142.846H144.032H145.222H146.41H147.606H148.794H149.982H151.171H152.366H153.554H154.742H155.93H157.126H158.315H159.503H160.691H161.886H163.075H164.263H165.451H166.646H167.835H169.023H170.211H171.407H172.595H173.784H174.972H176.167H177.355H178.544V495.436V496.63V497.826V498.902V500.097V501.293V502.488V503.684V504.88V505.954V507.15V508.346V509.541V510.737V511.932V513.128V514.202V515.398V516.594V517.79V518.985V520.181V521.376V522.452V523.646V524.842V526.038V527.233V528.428V529.505V530.7V531.894V533.09L177.715 533.806Z" fill="white"/>
<path d="M139.441 261.038H191.018V221.142H139.441V139.694H193.071V99.7977H95.6421V387.732H193.887V347.835H139.441V261.038Z" fill="white"/>
<path d="M508.875 269.68V334.672C508.875 346.191 503.551 351.535 492.504 351.535H484.312C472.852 351.535 467.528 346.191 467.528 334.672V152.856C467.528 141.339 472.852 135.995 484.312 135.995H491.681C502.735 135.995 508.059 141.339 508.059 152.856V209.215H551.036V150.388C551.036 114.606 533.843 97.3285 498.236 97.3285H476.944C441.336 97.3285 423.728 115.014 423.728 150.803V336.726C423.728 372.517 441.336 390.201 476.944 390.201H498.643C534.259 390.201 551.857 372.517 551.857 336.726V269.68H508.875Z" fill="white"/>
<path d="M356.775 387.733H400.58V99.7969H356.775V387.733Z" fill="white"/>
<path d="M293.216 227.722C293.216 239.241 287.9 244.591 276.846 244.591H258.832V138.463H276.846C287.9 138.463 293.216 143.809 293.216 155.325V227.722ZM283.801 99.7968H215.032V387.733H258.832V283.25H283.801C319.416 283.25 337.016 265.566 337.016 229.783V153.271C337.016 117.482 319.416 99.7968 283.801 99.7968" fill="white"/>
<path fill-rule="evenodd" clip-rule="evenodd" d="M198.971 648.084H449.71L321.729 690.289L198.971 648.084Z" fill="white"/>
</svg>
