<svg width="648" height="751" viewBox="0 0 648 751" fill="none" xmlns="http://www.w3.org/2000/svg">
<path fill-rule="evenodd" clip-rule="evenodd" d="M588.396 4.07164e-06H58.7707C15.8427 4.07164e-06 0 15.8427 0 58.7907V577.025C0 581.885 0.195992 586.4 0.625325 590.583C1.60266 599.957 1.78666 609.041 10.5053 619.384C11.3573 620.397 20.2587 627.021 20.2587 627.021C25.0467 629.369 28.316 631.099 33.716 633.272L294.511 742.536C308.049 748.743 313.711 751.161 323.544 750.967V750.968C323.557 750.968 323.569 750.968 323.583 750.968C323.596 750.968 323.608 750.968 323.621 750.968V750.967C333.455 751.161 339.116 748.743 352.656 742.536L613.449 633.272C618.851 631.099 622.119 629.369 626.908 627.021C626.908 627.021 635.809 620.397 636.66 619.384C645.379 609.041 645.563 599.957 646.54 590.583C646.969 586.4 647.167 581.885 647.167 577.025V58.7907C647.167 15.8427 631.323 4.07164e-06 588.396 4.07164e-06Z" fill="#FDFDFD"/>
<path d="M552.922 521.017L552.802 522.213L552.683 523.526L552.443 524.722L552.086 525.917L551.854 526.993L551.494 528.189L551.017 529.265L550.538 530.222L550.067 531.297L549.47 532.253L548.873 533.21L548.162 534.166L547.563 535.122L546.854 535.958L546.017 536.796L545.306 537.513L544.351 538.35L543.521 539.068L542.565 539.785L541.615 540.374L540.666 541.092L539.59 541.689L538.521 542.168L537.453 542.765L536.257 543.244L535.069 543.722L533.881 544.08L532.693 544.44L531.617 544.797L530.429 545.037L529.359 545.276L528.291 545.514L527.095 545.754L525.906 545.873L524.838 545.993L523.642 546.113L522.335 546.233L521.146 546.352H519.958H518.65H517.335H516.147L514.958 546.233H513.651L512.462 546.113L511.267 545.993L509.959 545.873L508.771 545.634L507.583 545.514L506.387 545.276L505.198 545.037L504.01 544.797L502.822 544.558L501.627 544.201L500.558 543.961L499.37 543.602L498.181 543.244L497.106 542.765L495.918 542.406L494.849 542.049L493.659 541.57L492.585 541.092L491.515 540.613L490.446 540.024L489.371 539.545L488.302 538.946L487.353 538.35L486.277 537.752L485.327 537.154L484.371 536.557L483.422 535.84L482.473 535.122L481.517 534.405L480.566 533.688L479.73 532.97L478.781 532.134L479.498 531.178L480.327 530.341L481.045 529.384L481.875 528.428L482.593 527.592L483.302 526.636L484.139 525.678L484.849 524.842L485.686 523.886L486.397 523.049L487.233 522.093L487.943 521.136L488.661 520.3L489.49 519.344L490.207 518.386L491.037 517.55L491.754 516.594L492.703 517.312L493.773 518.029L494.729 518.746L495.798 519.464L496.754 520.061L497.823 520.777L498.771 521.376L499.849 521.853L500.797 522.452L501.866 522.93L502.942 523.408L504.01 523.886L505.081 524.245L506.155 524.722L507.343 525.081L508.533 525.44L509.601 525.798L510.797 526.038L511.985 526.277L513.173 526.516L514.481 526.636L515.675 526.874H516.865L518.171 526.993H519.361H520.787L522.095 526.874L523.291 526.636L524.359 526.396L525.429 526.157L526.385 525.798L527.215 525.321L528.171 524.604L528.881 523.766L529.359 522.809L529.719 521.734L529.837 520.538V520.3L529.719 518.865L529.241 517.669L528.642 516.833L527.813 516.116L526.855 515.398L525.906 514.921L524.838 514.442L523.642 513.964L522.215 513.368L521.385 513.128L520.437 512.889L519.361 512.529L518.291 512.29L517.103 511.932L515.907 511.693L514.601 511.334L513.411 511.096L512.103 510.737L510.915 510.498L509.719 510.14L508.533 509.9L507.343 509.541L506.267 509.184L505.081 508.944L504.01 508.585L502.942 508.226L501.866 507.868L500.558 507.389L499.37 506.91L498.181 506.433L496.986 505.954L495.918 505.357L494.729 504.76L493.773 504.162L492.703 503.565L491.754 502.848L490.798 502.25L489.969 501.532L489.133 500.696L488.302 499.858L487.585 499.021L486.875 498.185L486.277 497.349L485.686 496.392L485.089 495.317L484.61 494.488L484.251 493.53L483.901 492.454L483.542 491.498L483.302 490.302L483.063 489.226L482.943 488.032L482.825 486.836L482.705 485.522V484.206V483.968V482.772L482.825 481.577L482.943 480.501L483.063 479.305L483.302 478.23L483.542 477.154L483.901 476.077L484.139 475.002L484.61 473.926L485.089 472.85L485.566 471.776L486.158 470.698L486.754 469.624L487.465 468.666L488.183 467.71L489.013 466.754L489.849 465.918L490.679 464.961L491.635 464.124L492.465 463.526L493.421 462.809L494.371 462.092L495.319 461.494L496.395 460.897L497.465 460.418L498.533 459.821L499.609 459.344L500.797 458.984L501.985 458.506L503.061 458.148L504.01 457.908L505.081 457.669L506.155 457.43L507.343 457.192L508.413 456.952L509.601 456.833L510.797 456.713L511.985 456.593L513.173 456.474H514.361H515.675H516.985H518.291L519.599 456.593L520.907 456.713H522.095L523.41 456.833L524.598 457.072L525.906 457.192L527.095 457.43L528.171 457.669L529.359 457.908L530.547 458.148L531.617 458.386L532.811 458.745L533.881 459.104L534.95 459.344L536.145 459.821L537.214 460.18L538.282 460.657L539.351 461.136L540.546 461.614L541.615 462.212L542.565 462.69L543.641 463.288L544.71 463.885L545.659 464.484L546.734 465.201L547.685 465.797L548.641 466.516L549.59 467.233L550.538 467.949L549.829 468.906L549.231 469.862L548.521 470.818L547.803 471.776L547.094 472.85L546.495 473.806L545.778 474.764L545.067 475.72L544.471 476.676L543.759 477.633L543.043 478.589L542.445 479.545L541.735 480.621L541.017 481.577L540.307 482.533L539.71 483.489L538.999 484.445L538.043 483.729L536.975 483.13L536.025 482.533L535.069 481.816L534.001 481.338L533.043 480.74L531.975 480.261L531.026 479.784L529.95 479.305L529.001 478.828L527.933 478.469L526.977 477.99L525.667 477.633L524.479 477.273L523.291 476.916L522.095 476.676L520.907 476.437L519.719 476.197L518.531 476.077L517.335 475.958L516.267 475.838H515.078H513.651L512.343 476.077L511.147 476.317L510.079 476.556L509.13 477.034L508.293 477.512L507.223 478.469L506.506 479.545L506.037 480.621L505.915 481.816V482.056L506.037 483.609L506.626 484.924L507.105 485.641L507.934 486.478L509.01 487.076L509.959 487.673L511.147 488.152L512.462 488.63L513.89 489.108L514.839 489.346L515.789 489.705L516.865 489.944L517.933 490.302L519.121 490.542L520.437 490.901L521.745 491.258L523.053 491.618L524.359 491.857L525.547 492.216L526.855 492.574L528.051 492.813L529.241 493.172L530.429 493.53L531.497 493.889L532.693 494.248L533.762 494.606L534.83 494.965L536.145 495.436L537.333 496.034L538.521 496.512L539.71 497.109L540.786 497.708L541.855 498.305L542.803 498.902L543.759 499.62L544.71 500.217L545.659 501.054L546.615 501.89L547.445 502.848L548.281 503.684L548.991 504.641L549.709 505.716L550.299 506.672L550.898 507.749L551.375 508.705L551.734 509.78L552.086 510.856L552.325 511.932L552.563 513.128L552.802 514.324L552.922 515.518L553.042 516.833V518.148V518.386V519.702L552.922 521.017ZM469.463 544.918H468.269H467.081H465.893H464.705H463.509H462.319H461.133H459.943H458.629H457.441H456.253H455.065H453.867H452.681H451.491H450.303H449.107H447.919H446.731H445.543H444.354H443.159H441.971H440.783H439.594H438.398H437.21H436.022H434.714H433.519H432.33H431.142H429.954H428.759H427.57H426.382H425.193H423.998H422.81H421.622H420.433H419.237H418.05H416.861H415.673H414.478H413.289H411.981H410.793H409.605H408.409H407.221H406.031H404.845H403.65H402.461H401.273V543.722V542.526V541.332V540.142V538.946V537.752V536.557V535.362V534.166V532.97V531.776V530.58V529.384V528.189V526.993V525.798V524.604V523.408V522.332V521.136V519.941V518.746V517.55V516.354V515.16V513.964V512.768V511.573V510.378V509.184V507.988V506.792V505.597V504.401V503.205V502.01V500.814V499.62V498.425V497.229V496.034V494.845V493.65V492.454V491.258V490.064V488.869V487.673V486.478V485.282V484.086V482.892V481.696V480.501V479.425V478.23V477.034V475.838V474.644V473.448V472.253V471.057V469.862V468.666V467.472V466.276V465.08V463.885V462.69V461.494V460.3V459.104V457.908H402.461H403.65H404.845H406.031H407.221H408.409H409.605H410.793H411.981H413.17H414.365H415.554H416.741H417.93H419.005H420.194H421.382H422.571H423.766H424.954H426.142H427.331H428.526H429.714H430.902H432.091H433.287H434.475H435.663H436.851H438.047H439.237H440.423H441.611H442.801H443.997H445.185H446.373H447.561H448.757H449.945H451.133H452.321H453.398H454.586H455.774H456.963H458.158H459.346H460.534H461.722H462.918H464.106H465.294H466.483H467.678H468.867H470.055V459.104V460.18V461.374V462.57V463.765V464.841V466.037V467.233V468.308V469.504V470.698V471.776V472.97V474.165V475.361V476.437V477.633H468.867H467.678H466.483H465.294H464.106H462.918H461.842H460.654H459.466H458.277H457.082H455.894H454.705H453.517H452.321H451.133H449.945H448.757H447.561H446.493H445.303H444.115H442.919H441.733H440.543H439.355H438.159H436.971H435.783H434.595H433.399H432.21H431.142H429.954H428.759H427.57H426.382H425.193H423.998V478.828V480.022V481.217V482.413V483.609V484.685V485.88V487.076V488.27V489.466V490.661V491.857H425.193H426.382H427.57H428.759H429.954H431.142H432.33H433.519H434.595H435.783H436.971H438.159H439.355H440.543H441.733H442.919H444.115H445.303H446.493H447.681H448.875H450.063H451.253H452.442H453.637H454.825H455.894H457.082H458.277H459.466H460.654H461.842H463.037H464.226H465.414V493.052V494.128V495.317V496.512V497.588V498.782V499.978V501.054V502.25V503.445V504.641V505.716V506.91V508.106V509.184V510.378H464.226H463.037H461.842H460.654H459.466H458.277H457.082H455.894H454.825H453.637H452.442H451.253H450.063H448.875H447.681H446.493H445.303H444.115H442.919H441.733H440.543H439.355H438.159H436.971H435.783H434.595H433.519H432.33H431.142H429.954H428.759H427.57H426.382H425.193H423.998V511.573V512.889V514.084V515.28V516.594V517.79V518.985V520.3V521.494V522.69V524.005V525.2H425.193H426.382H427.57H428.759H429.954H431.142H432.33H433.519H434.714H436.022H437.21H438.398H439.594H440.783H441.971H443.159H444.354H445.543H446.731H447.919H449.107H450.303H451.491H452.681H453.867H455.065H456.253H457.441H458.629H459.943H461.133H462.319H463.509H464.705H465.893H467.081H468.269H469.463H470.653V526.396V527.472V528.668V529.862V531.058V532.134V533.329V534.524V535.601V536.796V537.99V539.068V540.256V541.45V542.645V543.722V544.918H469.463ZM382.511 544.918H381.323H380.134H378.821H377.633H376.443H375.255H374.059H372.871H371.563H370.375H369.186H367.991H366.803H365.615H364.307H363.111H361.923H360.734V543.722V542.526V541.332V540.136V538.933V537.738V536.542V535.346V534.152V532.957V531.761V530.56V529.364V528.168V526.973V525.777V524.574V523.378V522.184V520.989V519.793V518.598V517.396V516.201V515.005V513.809V512.614V511.418V510.216V509.02V507.825V506.63V505.436V504.24V503.037V501.842V500.646V499.452V498.256V497.053V495.858V494.662V493.466L360.138 494.422L359.427 495.506L358.829 496.462L358.119 497.42L357.522 498.494L356.803 499.452L356.214 500.408L355.615 501.49L354.906 502.446L354.307 503.402L353.591 504.36L353.001 505.442L352.283 506.398L351.693 507.354L351.094 508.43L350.377 509.393L349.786 510.35L349.069 511.425L348.479 512.382L347.762 513.338L347.171 514.421L346.573 515.378L345.857 516.334L345.266 517.41L344.549 518.373L343.958 519.329L343.241 520.286L342.642 521.361L342.051 522.324L341.335 523.281L340.745 524.357L340.027 525.313L339.43 526.269L338.719 527.353L338.122 528.309H337.65L336.934 527.233L336.335 526.269L335.625 525.193L335.027 524.237L334.317 523.162L333.719 522.198L333.01 521.122L332.411 520.165L331.694 519.09L331.103 518.134L330.386 517.05L329.797 516.094L329.079 515.018L328.481 514.062L327.771 512.98L327.173 512.024L326.463 510.948L325.746 509.992L325.149 508.909L324.438 507.953L323.841 506.877L323.13 505.921L322.533 504.837L321.822 503.881L321.225 502.805L320.507 501.849L319.917 500.773L319.199 499.809L318.609 498.734L317.891 497.777L317.294 496.701L316.585 495.746L315.985 494.662L315.275 493.706V494.901V496.097V497.293V498.494V499.69V500.885V502.081V503.277V504.478V505.674V506.75V507.945V509.141V510.336V511.538V512.734V513.929V515.124V516.32V517.516V518.717V519.913V521.109V522.304V523.5V524.694V525.897V527.092V528.288V529.482V530.678V531.88V532.957V534.152V535.346V536.542V537.738V538.933V540.136V541.332V542.526V543.722V544.918H314.087H312.893H311.703H310.515H309.327H308.133H306.943H305.755H304.566H303.371H302.183H300.994H299.806H298.611H297.423H296.234H295.045H293.85H292.662V543.722V542.526V541.332V540.142V538.946V537.752V536.557V535.362V534.166V532.97V531.776V530.58V529.384V528.189V526.993V525.798V524.604V523.408V522.332V521.136V519.941V518.746V517.55V516.354V515.16V513.964V512.768V511.573V510.378V509.184V507.988V506.792V505.597V504.401V503.205V502.01V500.814V499.62V498.425V497.229V496.034V494.845V493.65V492.454V491.258V490.064V488.869V487.673V486.478V485.282V484.086V482.892V481.696V480.501V479.425V478.23V477.034V475.838V474.644V473.448V472.253V471.057V469.862V468.666V467.472V466.276V465.08V463.885V462.69V461.494V460.3V459.104V457.908H293.85H295.045H296.115H297.302H298.491H299.686H300.755H301.943H303.139H304.327H305.397H306.585H307.781H308.969H310.037H311.225H312.421H313.61H314.678H315.866H317.062L317.653 458.865L318.25 459.94L318.959 460.889L319.558 461.965L320.155 462.921L320.746 463.998L321.343 464.946L322.055 466.024L322.651 466.98L323.25 467.936L323.841 469.004L324.438 469.961L325.149 471.036L325.746 471.993L326.343 473.061L326.934 474.017L327.651 474.973L328.25 476.044L328.839 476.998L329.437 478.074L330.029 479.032L330.746 480.1L331.343 481.057L331.933 482.132L332.531 483.081L333.122 484.037L333.839 485.113L334.437 486.07L335.027 487.146L335.625 488.096L336.215 489.172L336.934 490.128L337.531 491.196L338.122 492.153L338.719 491.196L339.317 490.128L340.027 489.172L340.623 488.096L341.215 487.146L341.813 486.07L342.523 485.113L343.121 484.037L343.719 483.081L344.309 482.132L345.026 481.057L345.617 480.1L346.215 479.032L346.811 478.074L347.522 476.998L348.119 476.044L348.718 474.973L349.307 474.017L349.907 473.061L350.617 471.993L351.214 471.036L351.811 469.961L352.403 469.004L353.119 467.936L353.711 466.98L354.307 466.024L354.906 464.946L355.615 463.998L356.214 462.921L356.803 461.965L357.402 460.889L358.119 459.94L358.71 458.865L359.307 457.908H360.495H361.685H362.759H363.949H365.137H366.325H367.401H368.59H369.777H370.966H372.042H373.23H374.418H375.607H376.682H377.871H379.059H380.247H381.323H382.511H383.699V459.104V460.3V461.494V462.69V463.885V465.08V466.276V467.472V468.666V469.862V471.057V472.253V473.448V474.644V475.838V477.034V478.23V479.425V480.501V481.696V482.892V484.086V485.282V486.478V487.673V488.869V490.064V491.258V492.454V493.65V494.845V496.034V497.229V498.425V499.62V500.814V502.01V503.205V504.401V505.597V506.792V507.988V509.184V510.378V511.573V512.768V513.964V515.16V516.354V517.55V518.746V519.941V521.136V522.332V523.408V524.604V525.798V526.993V528.189V529.384V530.58V531.776V532.97V534.166V535.362V536.557V537.752V538.946V540.142V541.332V542.526V543.722V544.918H382.511ZM244.433 509.064L244.074 507.981L243.603 506.785L243.125 505.709L242.766 504.626L242.295 503.55L241.818 502.354L241.458 501.272L240.979 500.196L240.51 499.121L240.15 498.038L239.671 496.842L239.321 495.766L238.842 494.684L238.363 493.608L238.006 492.532L237.534 491.33L237.057 490.253L236.698 489.178L236.219 488.096L235.749 486.9L235.39 485.817L234.911 484.741L234.441 485.817L234.083 486.9L233.605 488.096L233.126 489.178L232.774 490.253L232.297 491.33L231.818 492.532L231.347 493.608L230.987 494.684L230.51 495.766L230.031 496.842L229.679 498.038L229.202 499.121L228.723 500.196L228.366 501.272L227.894 502.354L227.415 503.55L226.938 504.626L226.587 505.709L226.109 506.785L225.63 507.981L225.271 509.064L224.801 510.14H225.989H227.177H228.366H229.561H230.749H231.937H233.126H234.322H235.39H236.578H237.774H238.962H240.15H241.339H242.527H243.722H244.91L244.433 509.064ZM281.806 544.918H280.611H279.541H278.354H277.158H275.97H274.781H273.713H272.517H271.329H270.141H268.951H267.757H266.687H265.499H264.31H263.115H261.927H260.858H259.67H258.475L258.003 543.841L257.645 542.765L257.167 541.689L256.689 540.494L256.337 539.425L255.859 538.35L255.381 537.274L255.029 536.198L254.551 535.122L254.073 534.046L253.715 532.97L253.243 531.776L252.765 530.7L252.406 529.624L251.927 528.548H250.739H249.551H248.363H247.175H246.099H244.91H243.722H242.527H241.339H240.15H238.962H237.774H236.578H235.39H234.322H233.126H231.937H230.749H229.561H228.366H227.177H225.989H224.801H223.613H222.535H221.349H220.159H218.963H217.775L217.305 529.624L216.946 530.7L216.467 531.776L215.99 532.97L215.638 534.046L215.161 535.122L214.682 536.198L214.323 537.274L213.853 538.35L213.374 539.425L213.015 540.494L212.543 541.689L212.066 542.765L211.707 543.841L211.229 544.918H210.041H208.853H207.665H206.469H205.281H203.973H202.785H201.595H200.401H199.213H198.025H196.835H195.639H194.453H193.265H191.957H190.761H189.573H188.383H187.195L187.666 543.841L188.145 542.765L188.622 541.689L189.094 540.494L189.453 539.425L189.931 538.35L190.409 537.274L190.879 536.198L191.358 535.122L191.837 533.926L192.307 532.85L192.786 531.776L193.143 530.7L193.622 529.624L194.093 528.548L194.571 527.353L195.049 526.277L195.521 525.2L195.999 524.125L196.477 523.049L196.835 521.973L197.306 520.777L197.785 519.702L198.263 518.626L198.734 517.55L199.213 516.474L199.691 515.398L200.162 514.202L200.521 513.128L200.999 512.052L201.477 510.976L201.949 509.9L202.426 508.824L202.903 507.629L203.375 506.553L203.853 505.477L204.211 504.401L204.69 503.326L205.161 502.25L205.639 501.054L206.118 499.978L206.589 498.902L207.066 497.826L207.545 496.752L207.903 495.674L208.375 494.606L208.853 493.41L209.33 492.336L209.802 491.258L210.279 490.182L210.758 489.108L211.229 488.032L211.587 486.836L212.066 485.761L212.543 484.685L213.015 483.609L213.494 482.533L213.971 481.457L214.443 480.261L214.921 479.186L215.279 478.11L215.757 477.034L216.229 475.958L216.706 474.882L217.185 473.688L217.655 472.612L218.134 471.536L218.613 470.46L218.963 469.385L219.442 468.308L219.921 467.113L220.399 466.037L220.87 464.961L221.349 463.885L221.826 462.809L222.297 461.734L222.657 460.538L223.134 459.462L223.613 458.386L224.083 457.31H225.271H226.347H227.535H228.723H229.919H230.987H232.175H233.365H234.561H235.63H236.817H238.006H239.201H240.27H241.458H242.646H243.842H244.91H246.099L246.577 458.386L247.055 459.462L247.527 460.538L248.005 461.734L248.363 462.809L248.834 463.885L249.313 464.961L249.79 466.037L250.269 467.113L250.739 468.308L251.218 469.385L251.697 470.46L252.047 471.536L252.526 472.612L253.005 473.688L253.483 474.882L253.954 475.958L254.431 477.034L254.91 478.11L255.381 479.186L255.739 480.261L256.217 481.457L256.689 482.533L257.167 483.609L257.645 484.685L258.123 485.761L258.594 486.836L259.071 488.032L259.431 489.108L259.902 490.182L260.379 491.258L260.858 492.336L261.337 493.41L261.807 494.606L262.286 495.674L262.763 496.752L263.115 497.826L263.593 498.902L264.071 499.978L264.543 501.054L265.021 502.25L265.499 503.326L265.978 504.401L266.449 505.477L266.807 506.553L267.285 507.629L267.757 508.824L268.234 509.9L268.713 510.976L269.19 512.052L269.662 513.128L270.141 514.202L270.498 515.398L270.97 516.474L271.447 517.55L271.926 518.626L272.397 519.702L272.875 520.777L273.354 521.973L273.833 523.049L274.183 524.125L274.662 525.2L275.141 526.277L275.611 527.353L276.089 528.548L276.567 529.624L277.045 530.7L277.515 531.776L277.875 532.85L278.354 533.926L278.825 535.122L279.302 536.198L279.779 537.274L280.251 538.35L280.729 539.425L281.207 540.494L281.567 541.689L282.037 542.765L282.515 543.841L282.993 544.918H281.806ZM177.549 533.806L176.593 534.524L175.762 535.122L174.806 535.84L173.857 536.437L172.907 537.154L171.951 537.752L171.002 538.35L169.926 538.946L168.857 539.545L167.787 540.142L166.713 540.613L165.643 541.212L164.455 541.689L163.387 542.168L162.191 542.645L161.123 543.124L160.053 543.482L158.978 543.841L157.909 544.201L156.721 544.558L155.653 544.918L154.457 545.157L153.387 545.396L152.199 545.634L151.005 545.873L149.815 545.993L148.507 546.113L147.319 546.233L146.011 546.352L144.815 546.472L143.509 546.59H142.201H140.891H139.585H138.389L137.201 546.472L135.893 546.352L134.705 546.233L133.517 546.113L132.321 545.993L131.133 545.754L129.943 545.514L128.875 545.276L127.681 545.037L126.611 544.678L125.423 544.44L124.347 544.08L123.278 543.602L122.209 543.244L121.022 542.765L119.946 542.288L118.877 541.81L117.809 541.332L116.731 540.734L115.783 540.142L114.714 539.545L113.758 538.946L112.809 538.35L111.853 537.632L110.903 536.916L109.953 536.198L109.117 535.481L108.287 534.764L107.45 533.926L106.621 533.21L105.783 532.373L104.954 531.536L104.237 530.7L103.526 529.744L102.809 528.906L102.211 527.95L101.501 526.993L100.905 526.038L100.313 525.081L99.7153 524.005L99.118 523.049L98.6473 521.973L98.1686 520.897L97.6913 519.821L97.2193 518.746L96.8606 517.79L96.382 516.713L96.1433 515.637L95.7913 514.562L95.5526 513.368L95.194 512.29L94.9553 511.096L94.8353 510.02L94.5953 508.824L94.4779 507.749L94.3566 506.553L94.2446 505.357L94.126 504.162V502.848V501.652V501.413V500.217L94.2446 498.902V497.708L94.3566 496.512L94.4779 495.197L94.7166 494.009L94.8353 492.813L95.074 491.737L95.4326 490.542L95.6726 489.346L96.0233 488.27L96.382 487.076L96.7406 486L97.2193 484.804L97.6913 483.729L98.1686 482.653L98.6473 481.577L99.118 480.501L99.7153 479.425L100.313 478.469L100.905 477.512L101.501 476.556L102.099 475.6L102.809 474.644L103.526 473.688L104.237 472.732L104.954 471.893L105.783 471.057L106.501 470.22L107.331 469.385L108.167 468.546L108.997 467.83L109.953 466.993L110.783 466.276L111.733 465.558L112.689 464.961L113.638 464.244L114.595 463.646L115.543 463.049L116.613 462.45L117.689 461.853L118.757 461.256L119.826 460.777L120.901 460.3L122.09 459.701L123.039 459.344L124.227 458.984L125.305 458.506L126.373 458.266L127.441 457.908L128.635 457.669L129.705 457.31L130.893 457.072L132.082 456.952L133.277 456.713L134.466 456.593L135.653 456.474L136.842 456.354L138.038 456.234H139.346H140.534H141.841H143.149L144.465 456.354L145.773 456.474H146.961L148.149 456.593L149.457 456.833L150.533 456.952L151.721 457.192L152.91 457.43L153.985 457.669L155.053 457.908L156.123 458.148L157.199 458.506L158.267 458.745L159.217 459.104L160.293 459.462L161.362 459.94L162.43 460.418L163.506 460.897L164.575 461.494L165.643 461.973L166.601 462.57L167.669 463.168L168.618 463.765L169.694 464.364L170.643 465.08L171.593 465.678L172.549 466.396L173.498 467.113L174.454 467.949L175.403 468.666L174.686 469.624L173.857 470.46L173.139 471.416L172.31 472.372L171.593 473.329L170.882 474.165L170.045 475.121L169.335 476.077L168.618 476.916L167.787 477.872L167.071 478.828L166.241 479.784L165.523 480.621L164.814 481.577L163.978 482.533L163.266 483.489L162.43 484.326L161.719 485.282L160.763 484.565L159.814 483.729L158.858 483.13L157.909 482.413L156.959 481.816L156.003 481.217L155.053 480.621L153.985 480.022L153.029 479.545L152.079 479.066L151.123 478.708L150.054 478.349L148.986 477.99L147.91 477.752L146.722 477.512L145.534 477.273L144.345 477.154L143.037 477.034L141.722 476.916H140.414H139.226L138.038 477.034L136.962 477.154L135.774 477.393L134.705 477.633L133.629 477.99L132.561 478.349L131.491 478.828L130.422 479.305L129.466 479.902L128.518 480.501L127.561 481.1L126.731 481.816L125.894 482.533L125.065 483.25L124.347 484.086L123.518 484.924L122.801 485.88L122.209 486.717L121.611 487.673L121.022 488.749L120.423 489.705L119.946 490.781L119.587 491.857L119.115 492.933L118.757 494.128L118.518 495.317L118.279 496.392L118.039 497.708L117.921 498.902L117.809 500.097V501.413V501.652V502.848L117.921 504.042L118.039 505.118L118.159 506.314L118.398 507.389L118.638 508.466L118.877 509.541L119.235 510.617L119.587 511.573L120.066 512.768L120.543 513.845L121.134 514.921L121.731 515.877L122.329 516.833L123.039 517.79L123.757 518.626L124.586 519.464L125.305 520.3L126.133 521.017L127.09 521.734L128.039 522.452L128.987 523.049L129.943 523.646L131.014 524.125L132.082 524.604L133.157 525.081L134.346 525.44L135.534 525.798L136.73 526.038L137.918 526.277L139.106 526.396L140.414 526.516H141.722H143.149L144.465 526.396L145.773 526.277L146.961 526.157L148.149 525.917L149.345 525.678L150.533 525.321L151.601 525.081L152.671 524.604L153.627 524.125L154.695 523.646L155.531 523.169L156.482 522.57V521.376V520.181V518.985V517.79V516.474V515.28V514.084V512.889V511.693H155.293H154.218H153.029H151.841H150.653H149.577H148.387H147.199H146.011H144.937H143.747H142.559H141.37H140.295H139.106V510.498V509.422V508.226V507.032V505.836V504.76V503.565V502.369V501.174V500.097V498.902V497.708V496.512V495.436V494.248H140.295H141.49H142.679H143.866H145.055H146.243H147.439H148.627H149.815H151.005H152.199H153.387H154.575H155.763H156.959H158.149H159.337H160.525H161.719H162.909H164.097H165.285H166.479H167.669H168.857H170.045H171.241H172.429H173.618H174.806H176.001H177.189H178.378V495.436V496.63V497.826V498.902V500.097V501.293V502.488V503.684V504.88V505.954V507.15V508.346V509.541V510.737V511.932V513.128V514.202V515.398V516.594V517.79V518.985V520.181V521.376V522.452V523.646V524.842V526.038V527.233V528.428V529.505V530.7V531.894V533.09L177.549 533.806Z" fill="#2F2D2E"/>
<path d="M139.274 261.038H190.852V221.142H139.274V139.694H192.905V99.7977H95.4756V387.732H193.721V347.835H139.274V261.038Z" fill="#2F2D2E"/>
<path d="M508.708 269.68V334.672C508.708 346.191 503.384 351.535 492.338 351.535H484.146C472.686 351.535 467.362 346.191 467.362 334.672V152.856C467.362 141.339 472.686 135.995 484.146 135.995H491.515C502.568 135.995 507.892 141.339 507.892 152.856V209.215H550.87V150.388C550.87 114.606 533.676 97.3285 498.07 97.3285H476.778C441.17 97.3285 423.562 115.014 423.562 150.803V336.726C423.562 372.517 441.17 390.201 476.778 390.201H498.476C534.092 390.201 551.691 372.517 551.691 336.726V269.68H508.708Z" fill="#2F2D2E"/>
<path d="M356.608 387.733H400.413V99.7969H356.608V387.733Z" fill="#2F2D2E"/>
<path d="M293.049 227.722C293.049 239.241 287.733 244.591 276.68 244.591H258.665V138.463H276.68C287.733 138.463 293.049 143.809 293.049 155.325V227.722ZM283.635 99.7968H214.865V387.733H258.665V283.25H283.635C319.249 283.25 336.849 265.566 336.849 229.783V153.271C336.849 117.482 319.249 99.7968 283.635 99.7968" fill="#2F2D2E"/>
<path fill-rule="evenodd" clip-rule="evenodd" d="M198.805 648.084H449.544L321.562 690.289L198.805 648.084Z" fill="#2F2D2E"/>
</svg>
